<svg width="0" height="0" xmlns="http://www.w3.org/2000/svg" xmlns:xlink="http://www.w3.org/1999/xlink">
    <symbol xmlns="http://www.w3.org/2000/svg" viewBox="0 0 6 10" id="arrow-prev">
        <path d="M1 5L0.434315 4.43431C0.121895 4.74673 0.121895 5.25327 0.434315 5.56569L1 5ZM4.43431 9.56569C4.74673 9.87811 5.25327 9.87811 5.56569 9.56569C5.8781 9.25327 5.8781 8.74673 5.56569 8.43431L4.43431 9.56569ZM5.56569 1.56569C5.8781 1.25327 5.8781 0.746734 5.56569 0.434315C5.25327 0.121895 4.74673 0.121895 4.43431 0.434315L5.56569 1.56569ZM5.56569 8.43431L1.56569 4.43431L0.434315 5.56569L4.43431 9.56569L5.56569 8.43431ZM1.56569 5.56569L5.56569 1.56569L4.43431 0.434315L0.434315 4.43431L1.56569 5.56569Z"/>
    </symbol>
    <symbol xmlns="http://www.w3.org/2000/svg" viewBox="0 0 6 10" id="arrow-next">
        <path d="M5 5L5.56569 5.56569C5.71571 5.41566 5.8 5.21217 5.8 5C5.8 4.78783 5.71571 4.58434 5.56569 4.43432L5 5ZM1.56569 0.434315C1.25327 0.121895 0.746735 0.121895 0.434315 0.434314C0.121896 0.746734 0.121896 1.25327 0.434315 1.56569L1.56569 0.434315ZM0.434315 8.43431C0.121895 8.74673 0.121895 9.25327 0.434314 9.56569C0.746734 9.87811 1.25327 9.87811 1.56569 9.56569L0.434315 8.43431ZM0.434315 1.56569L4.43431 5.56569L5.56569 4.43432L1.56569 0.434315L0.434315 1.56569ZM4.43432 4.43431L0.434315 8.43431L1.56569 9.56569L5.56569 5.56569L4.43432 4.43431Z"/>
    </symbol>
    <symbol xmlns="http://www.w3.org/2000/svg" viewBox="0 0 10 6" id="arrow-down">
        <path d="M5 5L4.43431 5.56569C4.74673 5.8781 5.25327 5.8781 5.56569 5.56569L5 5ZM9.56569 1.56569C9.8781 1.25327 9.8781 0.746734 9.56569 0.434314C9.25327 0.121895 8.74673 0.121895 8.43431 0.434314L9.56569 1.56569ZM1.56569 0.434315C1.25327 0.121895 0.746734 0.121895 0.434314 0.434315C0.121895 0.746734 0.121895 1.25327 0.434314 1.56569L1.56569 0.434315ZM8.43431 0.434314L4.43431 4.43431L5.56569 5.56569L9.56569 1.56569L8.43431 0.434314ZM5.56569 4.43431L1.56569 0.434315L0.434314 1.56569L4.43431 5.56569L5.56569 4.43431Z"/>
    </symbol>
    <symbol xmlns="http://www.w3.org/2000/svg" viewBox="0 0 20 20" id="location">
        <path d="M16.5 8.54545L17.3 8.54545L16.5 8.54545ZM10 18L9.5541 18.6642C9.8238 18.8453 10.1762 18.8453 10.4459 18.6642L10 18ZM3.5 8.54545H2.7H3.5ZM10 2V2.8V2ZM15.7 8.54545C15.7 10.7714 14.2601 12.9407 12.6673 14.6336C11.887 15.4631 11.104 16.1424 10.5152 16.6145C10.2214 16.8501 9.97757 17.0328 9.80876 17.1556C9.72439 17.2169 9.65888 17.2632 9.61536 17.2936C9.5936 17.3088 9.57736 17.3199 9.56701 17.327C9.56184 17.3305 9.55814 17.3331 9.55598 17.3345C9.55489 17.3353 9.55419 17.3357 9.55387 17.3359C9.55372 17.3361 9.55366 17.3361 9.55369 17.3361C9.55371 17.3361 9.55381 17.336 9.55382 17.336C9.55395 17.3359 9.5541 17.3358 10 18C10.4459 18.6642 10.4461 18.6641 10.4463 18.6639C10.4464 18.6639 10.4467 18.6637 10.4469 18.6635C10.4473 18.6632 10.4479 18.6629 10.4485 18.6625C10.4498 18.6616 10.4514 18.6605 10.4534 18.6591C10.4575 18.6564 10.4632 18.6525 10.4703 18.6476C10.4845 18.6379 10.5048 18.624 10.5306 18.6059C10.5823 18.5699 10.6565 18.5175 10.7498 18.4495C10.9365 18.3138 11.2005 18.1158 11.5161 17.8628C12.146 17.3576 12.988 16.6278 13.8327 15.73C15.4899 13.9684 17.3 11.4104 17.3 8.54545H15.7ZM10 18C10.4459 17.3358 10.4461 17.3359 10.4462 17.336C10.4462 17.336 10.4463 17.3361 10.4463 17.3361C10.4463 17.3361 10.4463 17.3361 10.4461 17.3359C10.4458 17.3357 10.4451 17.3353 10.444 17.3345C10.4419 17.3331 10.4382 17.3305 10.433 17.327C10.4226 17.3199 10.4064 17.3088 10.3846 17.2936C10.3411 17.2632 10.2756 17.2169 10.1912 17.1556C10.0224 17.0328 9.77861 16.8501 9.48484 16.6145C8.89605 16.1424 8.11302 15.4631 7.33267 14.6336C5.73993 12.9407 4.3 10.7714 4.3 8.54545H2.7C2.7 11.4104 4.51007 13.9684 6.16733 15.73C7.01198 16.6278 7.85395 17.3576 8.48391 17.8628C8.79951 18.1158 9.06351 18.3138 9.25017 18.4495C9.34353 18.5175 9.41767 18.5699 9.46936 18.6059C9.49521 18.624 9.51547 18.6379 9.52972 18.6476C9.53685 18.6525 9.54247 18.6564 9.54655 18.6591C9.54859 18.6605 9.55025 18.6616 9.55151 18.6625C9.55213 18.6629 9.55267 18.6632 9.5531 18.6635C9.55332 18.6637 9.55357 18.6639 9.55367 18.6639C9.5539 18.6641 9.5541 18.6642 10 18ZM4.3 8.54545C4.3 7.01987 4.90188 5.55789 5.97146 4.48083L4.83615 3.35341C3.46776 4.73137 2.7 6.59911 2.7 8.54545L4.3 8.54545ZM5.97146 4.48083C7.04085 3.40396 8.49007 2.8 10 2.8V1.2C8.06211 1.2 6.20473 1.97526 4.83615 3.35341L5.97146 4.48083ZM10 2.8C11.5099 2.8 12.9591 3.40396 14.0285 4.48083L15.1638 3.35341C13.7953 1.97526 11.9379 1.2 10 1.2V2.8ZM14.0285 4.48083C15.0981 5.55789 15.7 7.01987 15.7 8.54545L17.3 8.54545C17.3 6.59911 16.5322 4.73137 15.1638 3.35341L14.0285 4.48083ZM11.3667 8.54545C11.3667 9.31388 10.7495 9.92727 10 9.92727V11.5273C11.6437 11.5273 12.9667 10.187 12.9667 8.54545H11.3667ZM10 9.92727C9.25046 9.92727 8.63333 9.31388 8.63333 8.54545H7.03333C7.03333 10.187 8.35631 11.5273 10 11.5273V9.92727ZM8.63333 8.54545C8.63333 7.77703 9.25046 7.16364 10 7.16364V5.56364C8.35631 5.56364 7.03333 6.90391 7.03333 8.54545H8.63333ZM10 7.16364C10.7495 7.16364 11.3667 7.77703 11.3667 8.54545H12.9667C12.9667 6.90391 11.6437 5.56364 10 5.56364V7.16364Z"/>
    </symbol>
    <symbol xmlns="http://www.w3.org/2000/svg" viewBox="0 0 18 18" id="search">
        <path d="M16.4343 17.5657C16.7467 17.8781 17.2533 17.8781 17.5657 17.5657C17.8781 17.2533 17.8781 16.7467 17.5657 16.4343L16.4343 17.5657ZM13.699 12.5676C13.3866 12.2552 12.8801 12.2552 12.5676 12.5676C12.2552 12.8801 12.2552 13.3866 12.5676 13.699L13.699 12.5676ZM14.4222 8.11111C14.4222 11.5966 11.5966 14.4222 8.11111 14.4222V16.0222C12.4803 16.0222 16.0222 12.4803 16.0222 8.11111H14.4222ZM8.11111 14.4222C4.62558 14.4222 1.8 11.5966 1.8 8.11111H0.2C0.2 12.4803 3.74193 16.0222 8.11111 16.0222V14.4222ZM1.8 8.11111C1.8 4.62558 4.62558 1.8 8.11111 1.8V0.2C3.74193 0.2 0.2 3.74193 0.2 8.11111H1.8ZM8.11111 1.8C11.5966 1.8 14.4222 4.62558 14.4222 8.11111H16.0222C16.0222 3.74193 12.4803 0.2 8.11111 0.2V1.8ZM17.5657 16.4343L13.699 12.5676L12.5676 13.699L16.4343 17.5657L17.5657 16.4343Z"/>
    </symbol>
    <symbol xmlns="http://www.w3.org/2000/svg" viewBox="0 0 16 18" id="user">
        <path d="M14.2 17C14.2 17.4418 14.5582 17.8 15 17.8C15.4418 17.8 15.8 17.4418 15.8 17H14.2ZM11.5 11.6667V10.8667V11.6667ZM4.5 11.6667V10.8667V11.6667ZM1 15.2222H0.2H1ZM0.2 17C0.2 17.4418 0.558172 17.8 1 17.8C1.44183 17.8 1.8 17.4418 1.8 17H0.2ZM15.8 17V15.2222H14.2V17H15.8ZM15.8 15.2222C15.8 14.0711 15.35 12.9646 14.545 12.1469L13.4048 13.2693C13.9125 13.7851 14.2 14.4874 14.2 15.2222H15.8ZM14.545 12.1469C13.7396 11.3287 12.6445 10.8667 11.5 10.8667V12.4667C12.212 12.4667 12.8974 12.7539 13.4048 13.2693L14.545 12.1469ZM11.5 10.8667H4.5V12.4667H11.5V10.8667ZM4.5 10.8667C3.35547 10.8667 2.26041 11.3287 1.455 12.1469L2.59525 13.2693C3.1026 12.7539 3.78802 12.4667 4.5 12.4667V10.8667ZM1.455 12.1469C0.650023 12.9646 0.2 14.0711 0.2 15.2222H1.8C1.8 14.4874 2.08747 13.7851 2.59525 13.2693L1.455 12.1469ZM0.2 15.2222V17H1.8V15.2222H0.2ZM10.7 4.55556C10.7 6.08933 9.47934 7.31111 8 7.31111V8.91111C10.3867 8.91111 12.3 6.94914 12.3 4.55556H10.7ZM8 7.31111C6.52066 7.31111 5.3 6.08933 5.3 4.55556H3.7C3.7 6.94914 5.61334 8.91111 8 8.91111V7.31111ZM5.3 4.55556C5.3 3.02178 6.52066 1.8 8 1.8V0.2C5.61334 0.2 3.7 2.16197 3.7 4.55556H5.3ZM8 1.8C9.47934 1.8 10.7 3.02178 10.7 4.55556H12.3C12.3 2.16197 10.3867 0.2 8 0.2V1.8Z"/>
    </symbol>
    <symbol xmlns="http://www.w3.org/2000/svg" viewBox="0 0 20 18" id="cart">
        <path d="M1 0.2C0.558172 0.2 0.2 0.558172 0.2 1C0.2 1.44183 0.558172 1.8 1 1.8V0.2ZM4.27273 1L5.05357 0.825989C4.97205 0.460183 4.64751 0.2 4.27273 0.2V1ZM6.46545 10.8395L7.24981 10.6821C7.2487 10.6765 7.24753 10.671 7.2463 10.6655L6.46545 10.8395ZM8.10182 12.1429V11.3429C8.09676 11.3429 8.09171 11.3429 8.08665 11.343L8.10182 12.1429ZM16.0545 12.1429L16.0697 11.343C16.0647 11.3429 16.0596 11.3429 16.0545 11.3429V12.1429ZM17.6909 10.8395L16.9106 10.6632C16.9092 10.6694 16.9078 10.6757 16.9066 10.6821L17.6909 10.8395ZM19 5.04762L19.7803 5.22399C19.8339 4.98681 19.7767 4.73812 19.6249 4.54817C19.4731 4.35821 19.2432 4.24762 19 4.24762V5.04762ZM5.09091 4.24762C4.64908 4.24762 4.29091 4.60579 4.29091 5.04762C4.29091 5.48945 4.64908 5.84762 5.09091 5.84762V4.24762ZM7.56364 16.1905C7.56364 16.192 7.56349 16.1917 7.56374 16.1911C7.56374 16.1911 7.56318 16.1924 7.56133 16.1942C7.55947 16.196 7.55727 16.1975 7.55509 16.1984C7.55342 16.1991 7.55066 16.2 7.54545 16.2V17.8C8.43111 17.8 9.16364 17.0874 9.16364 16.1905H7.56364ZM7.54545 16.2C7.54025 16.2 7.53749 16.1991 7.53582 16.1984C7.53364 16.1975 7.53143 16.196 7.52958 16.1942C7.52773 16.1924 7.52717 16.1911 7.52717 16.1911C7.52742 16.1917 7.52727 16.192 7.52727 16.1905H5.92727C5.92727 17.0874 6.6598 17.8 7.54545 17.8V16.2ZM7.52727 16.1905C7.52727 16.1889 7.52742 16.1893 7.52717 16.1898C7.52717 16.1899 7.52773 16.1886 7.52958 16.1867C7.53143 16.1849 7.53364 16.1835 7.53582 16.1826C7.53749 16.1819 7.54025 16.181 7.54545 16.181V14.581C6.6598 14.581 5.92727 15.2936 5.92727 16.1905H7.52727ZM7.54545 16.181C7.55066 16.181 7.55342 16.1819 7.55509 16.1826C7.55727 16.1835 7.55948 16.1849 7.56133 16.1867C7.56318 16.1886 7.56374 16.1899 7.56374 16.1898C7.56349 16.1893 7.56364 16.1889 7.56364 16.1905H9.16364C9.16364 15.2936 8.43111 14.581 7.54545 14.581V16.181ZM16.5636 16.1905C16.5636 16.192 16.5635 16.1917 16.5637 16.1911C16.5637 16.1911 16.5632 16.1924 16.5613 16.1942C16.5595 16.196 16.5573 16.1975 16.5551 16.1984C16.5534 16.1991 16.5507 16.2 16.5455 16.2V17.8C17.4311 17.8 18.1636 17.0874 18.1636 16.1905H16.5636ZM16.5455 16.2C16.5403 16.2 16.5375 16.1991 16.5358 16.1984C16.5336 16.1975 16.5314 16.196 16.5296 16.1942C16.5277 16.1924 16.5272 16.1911 16.5272 16.1911C16.5274 16.1917 16.5273 16.192 16.5273 16.1905H14.9273C14.9273 17.0874 15.6598 17.8 16.5455 17.8V16.2ZM16.5273 16.1905C16.5273 16.1889 16.5274 16.1893 16.5272 16.1898C16.5272 16.1899 16.5277 16.1886 16.5296 16.1867C16.5314 16.1849 16.5336 16.1835 16.5358 16.1826C16.5375 16.1819 16.5403 16.181 16.5455 16.181V14.581C15.6598 14.581 14.9273 15.2936 14.9273 16.1905H16.5273ZM16.5455 16.181C16.5507 16.181 16.5534 16.1819 16.5551 16.1826C16.5573 16.1835 16.5595 16.1849 16.5613 16.1867C16.5632 16.1886 16.5637 16.1899 16.5637 16.1898C16.5635 16.1893 16.5636 16.1889 16.5636 16.1905H18.1636C18.1636 15.2936 17.4311 14.581 16.5455 14.581V16.181ZM1 1.8H4.27273V0.2H1V1.8ZM3.49188 1.17401L5.68461 11.0135L7.2463 10.6655L5.05357 0.825989L3.49188 1.17401ZM5.6811 10.997C5.79329 11.5558 6.10023 12.0561 6.54594 12.4111L7.54277 11.1595C7.39016 11.038 7.28725 10.8686 7.24981 10.6821L5.6811 10.997ZM6.54594 12.4111C6.99147 12.7659 7.54762 12.9535 8.11698 12.9427L8.08665 11.343C7.88807 11.3468 7.69556 11.2812 7.54277 11.1595L6.54594 12.4111ZM8.10182 12.9429H16.0545V11.3429H8.10182V12.9429ZM16.0394 12.9427C16.6087 12.9535 17.1649 12.7659 17.6104 12.4111L16.6136 11.1595C16.4608 11.2812 16.2683 11.3468 16.0697 11.343L16.0394 12.9427ZM17.6104 12.4111C18.0561 12.0561 18.3631 11.5558 18.4753 10.997L16.9066 10.6821C16.8691 10.8686 16.7662 11.038 16.6136 11.1595L17.6104 12.4111ZM18.4712 11.0159L19.7803 5.22399L18.2197 4.87125L16.9106 10.6632L18.4712 11.0159ZM19 4.24762H5.09091V5.84762H19V4.24762Z"/>
    </symbol>
    <symbol xmlns="http://www.w3.org/2000/svg" viewBox="0 0 12 12" id="close">
        <path d="M8.75353 3.95353C8.94879 3.75827 8.94879 3.44168 8.75353 3.24642C8.55827 3.05116 8.24168 3.05116 8.04642 3.24642L8.75353 3.95353ZM3.24642 8.04642C3.05116 8.24168 3.05116 8.55827 3.24642 8.75353C3.44168 8.94879 3.75827 8.94879 3.95353 8.75353L3.24642 8.04642ZM3.95353 3.24642C3.75827 3.05116 3.44168 3.05116 3.24642 3.24642C3.05116 3.44168 3.05116 3.75827 3.24642 3.95353L3.95353 3.24642ZM8.04642 8.75353C8.24168 8.94879 8.55827 8.94879 8.75353 8.75353C8.94879 8.55827 8.94879 8.24168 8.75353 8.04642L8.04642 8.75353ZM8.04642 3.24642L3.24642 8.04642L3.95353 8.75353L8.75353 3.95353L8.04642 3.24642ZM3.24642 3.95353L8.04642 8.75353L8.75353 8.04642L3.95353 3.24642L3.24642 3.95353Z"/>
    </symbol>
</svg>